<!--<svg width="25" height="21" viewBox="0 0 25 21" fill="none" xmlns="http://www.w3.org/2000/svg">-->
<!--<path d="M8.77789 0.562669L0.564298 8.71345C-0.188099 9.46459 -0.188099 10.6838 0.564298 11.4324L8.77789 19.5881C9.5366 20.3392 10.7646 20.3354 11.5233 19.5881C12.2744 18.8357 12.2744 17.6215 11.5233 16.8691L6.71818 12.1016H22.1324C23.2459 12.1016 24.1467 11.202 24.1467 10.0885C24.1467 8.97625 23.2459 8.07537 22.1324 8.07537H6.68919L11.5233 3.28282C12.2744 2.53168 12.2744 1.31623 11.5233 0.565085C10.7658 -0.187313 9.53783 -0.188569 8.77789 0.562568V0.562669Z" fill="white"/>-->
<!--</svg>-->
<svg width="25" height="21" xmlns="http://www.w3.org/2000/svg">

    <g>
        <title>background</title>
        <rect fill="none" id="canvas_background" height="402" width="582" y="-1" x="-1"/>
    </g>
    <g>
        <title>Layer 1</title>
        <path id="svg_1" fill="white" d="m8.77789,0.56267l-8.21359,8.15078c-0.7524,0.75114 -0.7524,1.97035 0,2.71895l8.21359,8.1557c0.75871,0.7511 1.98671,0.7473 2.74541,0c0.7511,-0.7524 0.7511,-1.9666 0,-2.719l-4.80512,-4.7675l15.41422,0c1.1135,0 2.0143,-0.8996 2.0143,-2.0131c0,-1.11225 -0.9008,-2.01313 -2.0143,-2.01313l-15.44321,0l4.83411,-4.79255c0.7511,-0.75114 0.7511,-1.96659 0,-2.71774c-0.7575,-0.75239 -1.98547,-0.75365 -2.74541,-0.00251l0,0.0001z"/>
    </g>
</svg>
