<svg width="25" height="21" xmlns="http://www.w3.org/2000/svg"><path fill="none" id="canvas_background" d="M-1 -1H581V401H-1z"/><path id="svg_1" fill="#fff" d="m15.8668,19.5874l8.2136,-8.1508c0.7524,-0.7512 0.7524,-1.97039 0,-2.71902l-8.2136,-8.15561c-0.7587,-0.75114 -1.9868,-0.74737 -2.7454,0c-0.7512,0.7524 -0.7512,1.96659 0,2.71899l4.8051,4.76742l-15.4142,0c-1.11351,0 -2.01439,0.89964 -2.01439,2.01312c0,1.1123 0.90088,2.0132 2.01439,2.0132l15.4432,0l-4.8341,4.7925c-0.7512,0.7511 -0.7512,1.9666 0,2.7177c0.7574,0.7524 1.9854,0.7537 2.7454,0.0026l0,-0.0001z"/></svg>