<svg width="25" height="21" xmlns="http://www.w3.org/2000/svg"><path fill="none" id="canvas_background" d="M-1 -1H581V401H-1z"/><path id="svg_1" fill="#fff" d="m8.77789,0.56267l-8.21359,8.15078c-0.7524,0.75114 -0.7524,1.97035 0,2.71895l8.21359,8.1557c0.75871,0.7511 1.98671,0.7473 2.74541,0c0.7511,-0.7524 0.7511,-1.9666 0,-2.719l-4.80512,-4.7675l15.41422,0c1.1135,0 2.0143,-0.8996 2.0143,-2.0131c0,-1.11225 -0.9008,-2.01313 -2.0143,-2.01313l-15.44321,0l4.83411,-4.79255c0.7511,-0.75114 0.7511,-1.96659 0,-2.71774c-0.7575,-0.75239 -1.98547,-0.75365 -2.74541,-0.00251l0,0.0001z"/></svg>